<svg xmlns="http://www.w3.org/2000/svg" viewBox="0 0 640 640" role="img" aria-labelledby="title desc">
  <title id="title">Gifts in Egypt</title>
  <desc id="desc">Navy and gold Gifts in Egypt logo with a gift and pyramid motif.</desc>
  <rect width="640" height="640" fill="#fbfaf6"/>
  <circle cx="320" cy="320" r="265" fill="none" stroke="#b88a2a" stroke-width="7"/>
  <path d="M145 387 224 298l62 89Z" fill="#d0a64f"/>
  <path d="m196 387 65-64 44 64Z" fill="#b88a2a"/>
  <path d="M225 298 285 387h-61Z" fill="#ead8ae"/>
  <path d="M287 167h145v126H287z" fill="#c3932f"/>
  <path d="M287 167h72v126h-72z" fill="#e1bc69"/>
  <path d="m287 167-39-31m184 31 39-31" fill="none" stroke="#b88a2a" stroke-width="12" stroke-linecap="round"/>
  <path d="M359 167c-72-64-87 21 0 0 87 21 72-64 0 0Z" fill="none" stroke="#b88a2a" stroke-width="12"/>
  <path d="M359 167v126" stroke="#fbfaf6" stroke-width="7"/>
  <text x="70" y="365" fill="#192844" font-family="Georgia,serif" font-size="168" font-weight="700">G</text>
  <text x="280" y="365" fill="#192844" font-family="Georgia,serif" font-size="118" font-weight="700">ifts</text>
  <text x="320" y="430" text-anchor="middle" fill="#b88a2a" font-family="Georgia,serif" font-size="54" letter-spacing="3">in Egypt</text>
  <path d="M190 462h260M267 486h106" stroke="#b88a2a" stroke-width="4"/>
  <path d="M320 468v37m-17-20 17 20 17-20" fill="none" stroke="#b88a2a" stroke-width="4"/>
</svg>
